<svg width="28" height="28" viewBox="0 0 28 28" fill="none" xmlns="http://www.w3.org/2000/svg">
<path d="M2.33325 5.83333C2.33325 4.54467 3.37792 3.5 4.66659 3.5H23.3333C24.6219 3.5 25.6666 4.54467 25.6666 5.83333V8.16667C25.6666 9.03825 25.1887 9.79822 24.4807 10.1989C24.4934 10.2974 24.4999 10.398 24.4999 10.5V22.1667C24.4999 23.4553 23.4552 24.5 22.1666 24.5H5.83325C4.54459 24.5 3.49992 23.4553 3.49992 22.1667V10.5C3.49992 10.398 3.50647 10.2974 3.51917 10.1989C2.81113 9.79822 2.33325 9.03825 2.33325 8.16667V5.83333ZM23.3333 8.16667V5.83333H4.66659V8.16667H23.3333ZM5.83325 10.5V22.1667H22.1666V10.5H5.83325ZM9.33325 14C9.33325 13.3557 9.85559 12.8333 10.4999 12.8333H17.4999C18.1443 12.8333 18.6666 13.3557 18.6666 14C18.6666 14.6443 18.1443 15.1667 17.4999 15.1667H10.4999C9.85559 15.1667 9.33325 14.6443 9.33325 14Z" fill="#372329"/>
</svg>
