<svg width="28" height="28" viewBox="0 0 28 28" fill="none" xmlns="http://www.w3.org/2000/svg">
<path d="M4.66659 7.73904C4.82976 7.67308 5.02592 7.60023 5.25328 7.52674C6.0574 7.26682 7.24843 6.99996 8.74992 6.99996C10.2514 6.99996 11.4424 7.26682 12.2466 7.52674C12.4739 7.60023 12.6701 7.67308 12.8333 7.73904V20.4317C11.8402 20.1232 10.4534 19.8333 8.74992 19.8333C7.04639 19.8333 5.65967 20.1232 4.66659 20.4317V7.73904ZM13.9999 5.69945C13.7366 5.58268 13.3892 5.44388 12.9642 5.30651C11.9637 4.9831 10.5297 4.66663 8.74992 4.66663C6.97016 4.66663 5.53618 4.9831 4.53562 5.30651C4.03538 5.46821 3.64266 5.63188 3.36796 5.75928C3.23055 5.82301 3.12244 5.87776 3.04494 5.9188C3.00618 5.93933 2.97505 5.95644 2.95171 5.96954L2.92254 5.98613L2.91236 5.99204L2.90839 5.99437L2.90667 5.99538C2.90438 5.99674 2.61921 6.16573 2.90515 5.99629C2.55064 6.20637 2.33325 6.58788 2.33325 6.99996V22.1666C2.33325 22.5858 2.55813 22.9728 2.92233 23.1803C3.2863 23.3877 3.7335 23.384 4.09399 23.1707C4.09082 23.1725 4.08882 23.1737 4.08882 23.1737L4.09035 23.1729L4.09217 23.1718L4.09399 23.1707C4.10109 23.1667 4.11542 23.1589 4.1369 23.1475C4.17989 23.1248 4.25122 23.0884 4.34965 23.0427C4.54663 22.9514 4.85118 22.8234 5.25328 22.6934C6.0574 22.4335 7.24843 22.1666 8.74992 22.1666C10.2514 22.1666 11.4424 22.4335 12.2466 22.6934C12.6487 22.8234 12.9532 22.9514 13.1502 23.0427C13.2486 23.0884 13.32 23.1248 13.3629 23.1475C13.3844 23.1589 13.3988 23.1669 13.4059 23.1708C13.4091 23.1726 13.411 23.1737 13.411 23.1737M13.411 23.1737L13.4095 23.1729L13.4077 23.1718L13.4059 23.1708C13.7722 23.3872 14.2278 23.3873 14.594 23.1707C14.6011 23.1667 14.6154 23.1589 14.6369 23.1475C14.6799 23.1248 14.7512 23.0884 14.8497 23.0427C15.0466 22.9514 15.3512 22.8234 15.7533 22.6934C16.5574 22.4335 17.7484 22.1666 19.2499 22.1666C20.7514 22.1666 21.9424 22.4335 22.7466 22.6934C23.1487 22.8234 23.4532 22.9514 23.6502 23.0427C23.7486 23.0884 23.82 23.1248 23.8629 23.1475C23.8844 23.1589 23.8988 23.1669 23.9059 23.1708L23.9071 23.1715C24.2674 23.384 24.714 23.3874 25.0775 23.1803C25.4417 22.9728 25.6666 22.5858 25.6666 22.1666V6.99996C25.6666 6.58788 25.4492 6.20637 25.0947 5.99629L25.0932 5.99538L25.0915 5.99437L25.0875 5.99204L25.0773 5.98613L25.0481 5.96954C25.0248 5.95644 24.9937 5.93933 24.9549 5.9188C24.8774 5.87776 24.7693 5.82301 24.6319 5.75928C24.3572 5.63188 23.9645 5.46821 23.4642 5.30651C22.4637 4.9831 21.0297 4.66663 19.2499 4.66663C17.4702 4.66663 16.0362 4.9831 15.0356 5.30651C14.6106 5.44388 14.2633 5.58268 13.9999 5.69945M23.3333 7.73904V20.4317C22.3402 20.1232 20.9534 19.8333 19.2499 19.8333C17.5464 19.8333 16.1597 20.1232 15.1666 20.4317V7.73904C15.3298 7.67308 15.5259 7.60023 15.7533 7.52674C16.5574 7.26682 17.7484 6.99996 19.2499 6.99996C20.7514 6.99996 21.9424 7.26682 22.7466 7.52674C22.9739 7.60023 23.1701 7.67308 23.3333 7.73904ZM23.9059 8.00417C23.9091 8.00595 23.911 8.00708 23.911 8.00708L23.9095 8.00619L23.9059 8.00417ZM23.9059 23.1708L23.9098 23.173L23.9071 23.1715" fill="#372329"/>
</svg>
