<svg width="30" height="30" viewBox="0 0 30 30" fill="none" xmlns="http://www.w3.org/2000/svg">
<path fill-rule="evenodd" clip-rule="evenodd" d="M23.0374 1.82243L28.1776 6.96262C29.3457 8.13207 30.0013 9.71778 30 11.3707V18.6293C30.0013 20.2822 29.3457 21.8679 28.1776 23.0374L23.0374 28.1776C21.8679 29.3457 20.2822 30.0013 18.6293 30H11.3707C9.71778 30.0013 8.13207 29.3457 6.96262 28.1776L1.82243 23.0374C0.654279 21.8679 -0.00129785 20.2822 1.92908e-06 18.6293V11.3707C-0.00129785 9.71778 0.654279 8.13207 1.82243 6.96262L6.96262 1.82243C8.13207 0.654279 9.71778 -0.00129785 11.3707 1.92908e-06H18.6293C20.2822 -0.00129785 21.8679 0.654279 23.0374 1.82243ZM26.3241 21.2305C27.0062 20.5381 27.3822 19.6011 27.3677 18.6292V11.3239C27.3697 10.3682 26.9947 9.45031 26.3241 8.76943L21.2306 3.67597C20.5269 2.98207 19.5706 2.60518 18.5826 2.63236H11.3241C10.3684 2.63032 9.45044 3.00533 8.76955 3.67597L3.6761 8.76943C2.99394 9.46179 2.618 10.3988 2.63248 11.3707V18.676C2.63044 19.6317 3.00545 20.5496 3.6761 21.2305L8.76955 26.3239C9.46191 27.0061 10.399 27.382 11.3708 27.3676H18.6761C19.6318 27.3696 20.5497 26.9946 21.2306 26.3239L26.3241 21.2305Z" fill="white"/>
<path d="M14.9998 17.8972C14.3546 17.8972 13.8315 18.4202 13.8315 19.0654C13.8315 19.7106 14.3546 20.2337 14.9998 20.2337C15.645 20.2337 16.168 19.7106 16.168 19.0654C16.168 18.4202 15.645 17.8972 14.9998 17.8972V17.8972Z" fill="white"/>
<path d="M14.9998 15.7633C15.6415 15.7549 16.1596 15.2367 16.168 14.595V9.76637C16.168 9.12118 15.645 8.59814 14.9998 8.59814C14.3546 8.59814 13.8315 9.12118 13.8315 9.76637V14.595C13.8399 15.2367 14.3581 15.7549 14.9998 15.7633Z" fill="white"/>
</svg>
