<svg width="28" height="28" viewBox="0 0 28 28" fill="none" xmlns="http://www.w3.org/2000/svg">
<path d="M10.1312 3.55987C10.3707 3.48004 10.6296 3.48004 10.8691 3.55987L17.5002 5.77023L22.5956 4.07174C24.1065 3.5681 25.6668 4.6927 25.6668 6.28533V20.1591C25.6668 21.1635 25.0242 22.0551 24.0714 22.3727L17.8691 24.4401C17.6296 24.52 17.3707 24.52 17.1312 24.4401L10.5002 22.2298L5.40469 23.9283C3.89379 24.4319 2.3335 23.3073 2.3335 21.7147V7.84089C2.3335 6.83655 2.97617 5.94489 3.92896 5.62729L10.1312 3.55987ZM11.6668 20.1591L16.3335 21.7147V7.84089L11.6668 6.28533V20.1591ZM9.3335 6.28533L4.66683 7.84089V21.7147L9.3335 20.1591V6.28533ZM18.6668 7.84089V21.7147L23.3335 20.1591V6.28533L18.6668 7.84089Z" fill="#372329"/>
</svg>
