<svg width="28" height="28" viewBox="0 0 28 28" fill="none" xmlns="http://www.w3.org/2000/svg">
<path d="M10.131 3.55987C10.3705 3.48004 10.6294 3.48004 10.8689 3.55987L17.4999 5.77023L22.5954 4.07174C24.1063 3.5681 25.6666 4.6927 25.6666 6.28533V20.1591C25.6666 21.1635 25.0239 22.0551 24.0711 22.3727L17.8689 24.4401C17.6294 24.52 17.3705 24.52 17.131 24.4401L10.4999 22.2298L5.40445 23.9283C3.89354 24.4319 2.33325 23.3073 2.33325 21.7147V7.84089C2.33325 6.83655 2.97592 5.94489 3.92872 5.62729L10.131 3.55987ZM11.6666 20.1591L16.3333 21.7147V7.84089L11.6666 6.28533V20.1591ZM9.33325 6.28533L4.66659 7.84089V21.7147L9.33325 20.1591V6.28533ZM18.6666 7.84089V21.7147L23.3333 20.1591V6.28533L18.6666 7.84089Z" fill="#FF3974"/>
</svg>
